<svg xmlns="http://www.w3.org/2000/svg" viewBox="0 0 512 512" fill="none">
  <defs>
    <linearGradient id="bg" x1="0%" y1="0%" x2="100%" y2="100%">
      <stop offset="0%" style="stop-color:#6366f1"/>
      <stop offset="100%" style="stop-color:#8b5cf6"/>
    </linearGradient>
  </defs>

  <!-- Background -->
  <rect width="512" height="512" rx="96" fill="url(#bg)"/>

  <!-- Sparkles icon -->
  <g transform="translate(96, 96) scale(1.25)" stroke="white" stroke-width="20" stroke-linecap="round" stroke-linejoin="round" fill="none">
    <path d="M128 32L112.1 93.34a21.33 21.33 0 0 1-13.6 13.6L32 128l66.5 20.34a21.33 21.33 0 0 1 13.6 13.6L128 224l15.22-61.94a21.33 21.33 0 0 1 13.6-13.6L224 128l-67.18-21.06a21.33 21.33 0 0 1-13.6-13.6L128 32Z"/>
    <path d="M53.33 32v42.67"/>
    <path d="M202.67 181.33V224"/>
    <path d="M32 53.33h42.67"/>
    <path d="M181.33 202.67H224"/>
  </g>
</svg>
